<svg width="60" height="60" viewBox="0 0 60 60" fill="none" xmlns="http://www.w3.org/2000/svg">
<path d="M0 4.24264C0 1.89949 1.89949 0 4.24264 0L55.7574 0C58.1005 0 60 1.89949 60 4.24264V55.7574C60 58.1005 58.1005 60 55.7574 60H4.24264C1.89949 60 0 58.1005 0 55.7574V4.24264Z" fill="#46BD62"/>
<path d="M40.8174 14.9004C41.1243 14.9005 41.3721 15.1363 41.3721 15.4414V26.3701H43.5449C43.5631 26.3701 43.578 26.3746 43.585 26.377C43.5885 26.3782 43.5911 26.3802 43.5928 26.3809H43.5938C43.6117 26.3818 43.6302 26.3831 43.6475 26.3867L43.7031 26.4023L43.7168 26.4062L43.7158 26.4072C43.7263 26.4123 43.7463 26.419 43.7764 26.4287C43.8121 26.4403 43.8447 26.4615 43.8711 26.4834H43.8721C43.8915 26.4959 43.9235 26.5183 43.9521 26.5498C43.9594 26.5534 43.9734 26.5618 43.9873 26.5752C44.0016 26.589 44.01 26.6039 44.0146 26.6143C44.0191 26.6241 44.0222 26.6335 44.0234 26.6377L44.0254 26.6455L44.0283 26.6514L44.043 26.6855L44.0674 26.7383L44.0703 26.7451L44.0693 26.7461C44.0752 26.7691 44.079 26.7897 44.0811 26.8027C44.0833 26.8169 44.0845 26.8221 44.0859 26.8262L44.0908 26.8418V26.8535C44.091 26.8545 44.0917 26.8562 44.0928 26.8604C44.0938 26.8643 44.0952 26.872 44.0967 26.8799C44.0983 26.8881 44.0996 26.8994 44.0996 26.9121V44.5586C44.0996 44.8637 43.8519 45.0996 43.5449 45.0996H14.4463C14.1401 45.0996 13.889 44.8634 13.9004 44.5547V26.9121C13.9004 26.8995 13.9017 26.8881 13.9033 26.8799C13.9049 26.8719 13.9072 26.8642 13.9082 26.8604L13.9092 26.8584C13.9093 26.8152 13.9226 26.7675 13.9326 26.7383C13.9406 26.715 13.9533 26.6811 13.9756 26.6455H13.9746C13.9756 26.6435 13.9765 26.6426 13.9785 26.6367C13.9802 26.6319 13.9835 26.625 13.9873 26.6162C13.9906 26.6049 13.9955 26.5933 14.0029 26.583L14.0303 26.5576L14.0312 26.5586C14.0592 26.5247 14.0915 26.5003 14.1133 26.4863C14.1319 26.4687 14.1625 26.4428 14.2061 26.4287C14.2335 26.4198 14.2606 26.4112 14.2881 26.4023L14.2949 26.3994C14.3202 26.3933 14.3662 26.38 14.4092 26.3799C14.401 26.3799 14.3945 26.3818 14.3945 26.3818C14.3954 26.3815 14.3961 26.3818 14.3984 26.3809C14.4001 26.3802 14.4028 26.3782 14.4062 26.377C14.4132 26.3746 14.4281 26.3701 14.4463 26.3701H16.6191V15.4414C16.6191 15.1363 16.8669 14.9005 17.1738 14.9004H40.8174ZM29.3281 37.9316L29.3291 37.9326C29.228 38.0089 29.1143 38.041 28.9951 38.041C28.8761 38.0409 28.7631 38.0088 28.6621 37.9326V37.9316L15.001 27.9902V44.0176H42.9902V27.9902L29.3281 37.9316ZM17.7285 28.625L28.9951 36.8281L33.5107 33.5371L40.2627 28.625V15.9824H17.7285V28.625ZM37.1797 29.0176C37.4866 29.0176 37.7343 29.2536 37.7344 29.5586C37.7344 29.8637 37.4867 30.0996 37.1797 30.0996H20.8115C20.5045 30.0996 20.2568 29.8637 20.2568 29.5586C20.257 29.2536 20.5046 29.0176 20.8115 29.0176H37.1797ZM16.6191 27.8174V27.4531H16.1172L16.6191 27.8174ZM41.3721 27.8174L41.874 27.4531H41.3721V27.8174ZM37.1797 25.4883C37.4866 25.4883 37.7343 25.7242 37.7344 26.0293C37.7344 26.3344 37.4867 26.5703 37.1797 26.5703H20.8115C20.5045 26.5703 20.2568 26.3344 20.2568 26.0293C20.2569 25.7242 20.5046 25.4883 20.8115 25.4883H37.1797ZM43.959 26.5586L43.9609 26.5576C43.958 26.5548 43.9546 26.5525 43.9521 26.5508C43.9545 26.5534 43.9567 26.5559 43.959 26.5586ZM37.1797 21.959C37.4867 21.959 37.7344 22.1949 37.7344 22.5C37.7344 22.8051 37.4867 23.041 37.1797 23.041H20.8115C20.5045 23.041 20.2568 22.8051 20.2568 22.5C20.2568 22.1949 20.5045 21.959 20.8115 21.959H37.1797ZM31.7236 18.4297C32.0306 18.4297 32.2783 18.6656 32.2783 18.9707C32.2783 19.2758 32.0306 19.5117 31.7236 19.5117H20.8115C20.5046 19.5117 20.2569 19.2758 20.2568 18.9707C20.2568 18.6656 20.5045 18.4297 20.8115 18.4297H31.7236Z" fill="white" stroke="white" stroke-width="0.2"/>
</svg>
